 <svg version="1.0" xmlns="http://www.w3.org/2000/svg" width="700.000000pt" height="820.000000pt" viewBox="0 0 700.000000 820.000000" preserveAspectRatio="xMidYMid meet">
<metadata>
Created by potrace 1.12, written by Peter Selinger 2001-2015
</metadata>
<g transform="translate(0.000000,820.000000) scale(0.100000,-0.100000)" fill="#000000" stroke="none">
<path d="M3300 6325 c-114 -16 -161 -32 -235 -80 -31 -19 -98 -55 -149 -80
-79 -37 -103 -56 -172 -127 -64 -67 -85 -98 -112 -161 -18 -42 -55 -117 -82
-165 -66 -115 -80 -164 -80 -286 0 -143 14 -219 56 -301 20 -38 60 -117 89
-175 44 -86 69 -121 142 -196 64 -67 103 -98 142 -115 65 -29 134 -64 215
-109 79 -44 150 -60 276 -60 132 0 210 19 319 75 47 24 120 59 161 78 63 28
90 49 170 130 96 98 123 140 239 372 77 152 64 469 -24 597 -14 21 -45 79 -69
130 -38 82 -55 106 -147 199 -100 102 -107 107 -190 137 -48 17 -136 56 -195
87 -98 50 -117 56 -184 60 -41 2 -118 -2 -170 -10z m308 -300 c35 -8 77 -22
95 -31 18 -9 91 -76 162 -148 120 -121 133 -137 149 -191 24 -80 33 -296 16
-406 -20 -142 -34 -166 -172 -301 -68 -66 -140 -129 -162 -140 -62 -32 -162
-48 -301 -48 -225 0 -316 32 -400 140 -26 32 -68 75 -94 95 -57 44 -96 102
-116 169 -23 75 -34 218 -25 326 14 172 41 237 131 305 33 26 83 76 110 110
58 74 105 101 212 120 101 18 317 18 395 0z"></path>
<path d="M3120 3924 c-194 -24 -340 -53 -465 -94 -66 -21 -172 -49 -235 -60
-140 -26 -178 -42 -253 -109 -61 -54 -100 -77 -189 -112 -68 -26 -90 -48 -135
-128 -20 -37 -56 -90 -80 -120 -100 -123 -113 -181 -113 -518 0 -138 4 -263
10 -277 5 -14 21 -33 35 -42 24 -16 140 -17 1717 -16 1613 1 1691 2 1710 19
11 10 24 27 28 38 11 31 -5 604 -19 647 -7 21 -46 84 -89 142 -42 57 -90 128
-107 158 -27 48 -38 57 -120 98 -49 25 -126 72 -171 106 -87 65 -68 58 -419
153 -285 76 -431 110 -525 121 -120 14 -443 10 -580 -6z m785 -295 c137 -15
238 -44 370 -108 66 -32 158 -71 204 -87 80 -27 91 -35 208 -143 114 -105 125
-119 140 -170 23 -77 23 -235 0 -278 -24 -45 -61 -70 -120 -83 -36 -7 -449
-10 -1342 -8 -1288 3 -1290 3 -1330 24 -65 34 -80 71 -80 194 1 140 20 197 83
248 25 20 76 67 112 103 82 84 93 90 219 134 57 20 149 59 204 87 56 27 132
57 171 65 164 35 908 49 1161 22z"></path>
</g>
</svg>