 <svg version="1.0" xmlns="http://www.w3.org/2000/svg" width="700.000000pt" height="133.000000pt" viewBox="0 0 700.000000 133.000000" preserveAspectRatio="xMidYMid meet">
<metadata>
Created by potrace 1.12, written by Peter Selinger 2001-2015
</metadata>
<g transform="translate(0.000000,133.000000) scale(0.100000,-0.100000)" fill="#000000" stroke="none">
<path d="M3648 1242 l-108 -3 0 -544 0 -545 433 2 432 3 0 110 0 110 -315 5
-315 5 -2 430 c-1 236 -6 430 -10 430 -4 0 -56 -1 -115 -3z"></path>
<path d="M5928 1243 c-2 -5 -2 -69 0 -143 l3 -135 411 -405 c279 -275 418
-405 432 -405 l21 0 0 540 0 540 -107 3 -108 3 0 -291 c0 -159 -3 -290 -7
-290 -5 0 -138 130 -298 289 -268 267 -335 323 -347 294z"></path>
<path d="M637 1203 c-43 -69 -97 -170 -97 -181 0 -6 40 -82 88 -169 49 -87
105 -189 126 -226 20 -37 46 -84 58 -105 11 -20 39 -71 61 -112 22 -41 43 -79
47 -85 4 -5 24 -41 45 -80 21 -38 42 -76 48 -82 10 -14 277 -19 290 -6 4 3 1
13 -7 22 -7 9 -42 70 -78 136 -36 66 -74 136 -85 155 -26 46 -62 111 -103 185
-18 33 -67 123 -110 200 -43 77 -89 160 -102 185 -106 193 -111 200 -139 200
-11 0 -29 -16 -42 -37z"></path>
<path d="M5137 1233 c-7 -12 -43 -75 -82 -147 l-36 -65 182 -328 c100 -180
209 -376 242 -436 l60 -107 138 0 c76 0 140 3 142 7 3 5 -105 206 -239 448
-373 671 -352 635 -379 635 -13 0 -26 -3 -28 -7z"></path>
<path d="M1427 1118 l1 -113 314 -5 c172 -3 314 -7 316 -8 2 -1 9 -16 16 -33
16 -38 11 -61 -16 -86 -18 -16 -49 -18 -324 -23 l-304 -5 -1 -345 -2 -345 114
0 114 0 3 227 2 226 213 4 c245 4 270 11 352 99 66 71 89 127 88 219 0 93 -23
148 -87 212 -84 84 -105 88 -479 88 l-322 0 2 -112z"></path>
<path d="M2482 1118 l3 -113 306 -5 c284 -5 309 -6 328 -24 26 -24 27 -66 2
-97 l-19 -24 -309 -5 -308 -5 0 -345 0 -345 115 0 115 0 3 227 2 226 213 4
c238 4 254 8 341 88 70 65 91 117 91 229 0 87 -3 101 -27 143 -15 25 -49 64
-74 87 -76 67 -102 71 -466 71 l-319 0 3 -112z"></path>
<path d="M4910 828 c-5 -13 -90 -167 -188 -343 -99 -176 -176 -324 -172 -328
3 -4 69 -6 144 -5 l138 3 22 40 c139 251 216 392 216 399 0 12 -130 245 -141
251 -5 4 -13 -4 -19 -17z"></path>
<path d="M418 813 c-13 -25 -42 -77 -101 -183 -11 -19 -38 -69 -60 -110 -23
-41 -76 -138 -119 -214 -43 -77 -78 -143 -78 -148 0 -14 276 -10 288 5 5 6 62
106 126 220 l116 209 -67 124 c-38 68 -73 124 -80 124 -6 0 -18 -12 -25 -27z"></path>
<path d="M5930 735 c-1 -6 -1 -138 -1 -295 l0 -285 116 -3 115 -3 0 183 0 183
-115 115 c-63 63 -115 110 -115 105z"></path>
</g>
</svg>