<?xml version="1.0" standalone="no"?>
<!DOCTYPE svg PUBLIC "-//W3C//DTD SVG 20010904//EN"
 "http://www.w3.org/TR/2001/REC-SVG-20010904/DTD/svg10.dtd">
<svg version="1.0" xmlns="http://www.w3.org/2000/svg"
 width="376.000000pt" height="376.000000pt" viewBox="0 0 376.000000 376.000000"
 preserveAspectRatio="xMidYMid meet">

<g transform="translate(0.000000,376.000000) scale(0.100000,-0.100000)"
fill="#000000" stroke="none">
<path d="M1133 3555 c-152 -47 -245 -166 -266 -340 l-10 -92 -64 -6 c-117 -11
-220 -85 -275 -196 -30 -62 -32 -192 -4 -266 42 -108 161 -195 289 -210 l57
-6 0 -108 0 -108 -62 -7 c-123 -12 -225 -85 -277 -195 -22 -47 -26 -70 -26
-141 0 -71 4 -94 26 -141 52 -110 154 -183 277 -195 l62 -7 0 -107 0 -108 -52
-7 c-91 -11 -148 -37 -209 -92 -80 -74 -104 -132 -104 -248 0 -74 5 -98 23
-136 55 -111 158 -185 275 -196 l64 -6 11 -93 c18 -155 91 -262 220 -322 l57
-27 905 -3 c1006 -3 953 -6 1058 65 66 45 119 117 143 194 18 58 19 118 19
1428 0 1518 4 1424 -67 1529 -43 63 -113 116 -188 143 -52 18 -90 19 -947 18
-709 0 -902 -3 -935 -14z m1387 -1675 l0 -1540 -663 0 -663 0 -55 28 c-35 18
-64 42 -84 70 l-30 44 -3 344 -3 344 129 0 c116 0 131 2 147 20 25 28 23 76
-4 103 -19 20 -34 22 -146 25 l-125 4 0 374 0 374 124 0 c105 0 127 3 147 18
33 27 30 78 -5 109 -25 21 -36 23 -147 23 l-119 0 0 375 0 375 123 0 c132 1
148 6 167 54 11 31 -7 79 -35 90 -9 3 -70 6 -136 6 l-119 0 0 67 c0 107 51
187 142 220 24 8 212 12 696 12 l662 1 0 -1540z m465 1521 c22 -10 54 -34 72
-52 67 -71 63 33 63 -1469 0 -1502 4 -1398 -63 -1469 -57 -60 -95 -71 -249
-71 l-138 0 0 1540 0 1540 138 0 c112 0 144 -4 177 -19z m-2125 -622 l0 -190
-47 7 c-85 12 -139 55 -163 130 -38 115 53 244 173 244 l37 0 0 -191z m0 -899
l0 -190 -32 0 c-68 1 -154 60 -177 123 -14 36 -14 98 0 134 23 63 109 122 177
123 l32 0 0 -190z m0 -900 l0 -190 -37 0 c-126 0 -215 134 -169 255 19 47 72
102 109 109 108 23 97 43 97 -174z"/>
</g>
</svg>
